<?xml version="1.0" standalone="no"?>
<!DOCTYPE svg PUBLIC "-//W3C//DTD SVG 20010904//EN"
 "http://www.w3.org/TR/2001/REC-SVG-20010904/DTD/svg10.dtd">
<svg version="1.0" xmlns="http://www.w3.org/2000/svg"
 width="500.000000pt" height="500.000000pt" viewBox="0 0 500.000000 500.000000"
 preserveAspectRatio="xMidYMid meet">
<metadata>
Created by potrace 1.15, written by Peter Selinger 2001-2017
</metadata>
<g transform="translate(0.000000,500.000000) scale(0.100000,-0.100000)"
fill="#000000" stroke="none">
<path d="M2236 3943 c-16 -3 -39 -14 -51 -26 -13 -12 -39 -35 -59 -52 -21 -16
-54 -46 -75 -65 -37 -34 -66 -58 -125 -103 -16 -12 -41 -33 -57 -47 -15 -14
-42 -36 -59 -50 -18 -14 -40 -32 -49 -41 -9 -8 -36 -31 -61 -49 -25 -19 -46
-38 -48 -42 -2 -5 -9 -8 -16 -8 -7 0 -22 -10 -33 -22 -27 -30 -64 -62 -143
-126 -36 -28 -77 -62 -92 -74 -14 -13 -43 -36 -64 -53 -20 -16 -49 -41 -63
-54 -14 -14 -41 -35 -60 -48 -30 -20 -132 -107 -177 -150 -7 -7 -17 -13 -23
-13 -6 0 -11 -4 -11 -10 0 -5 -5 -10 -10 -10 -6 0 -25 -13 -43 -30 -76 -70
-122 -110 -128 -110 -4 0 -23 -16 -42 -35 -19 -19 -38 -35 -41 -35 -13 0 -76
-66 -76 -80 0 -8 11 -28 24 -45 76 -94 86 -99 115 -67 9 9 32 29 52 44 19 14
55 44 80 67 24 22 49 41 56 41 6 0 18 8 25 18 7 10 33 33 58 52 25 19 52 42
60 50 8 9 38 34 65 55 28 22 52 42 55 45 3 3 25 21 50 40 25 19 59 49 76 65
38 37 73 65 79 65 5 0 26 16 76 60 16 14 49 43 75 65 26 22 57 50 71 63 13 12
27 22 32 22 4 0 32 22 62 49 64 57 182 156 229 191 44 33 217 178 254 213 16
15 36 27 45 27 9 0 39 -20 66 -45 28 -25 53 -45 56 -45 3 0 29 -22 58 -50 29
-27 57 -50 63 -50 5 0 23 -13 38 -30 55 -58 79 -30 80 91 0 84 -1 86 -32 115
-18 16 -44 36 -58 45 -14 9 -39 29 -57 45 -17 16 -52 47 -78 69 -26 22 -53 45
-60 52 -15 14 -70 22 -109 16z"/>
<path d="M3175 3941 c-28 -12 -40 -28 -56 -76 -28 -82 -124 -155 -202 -155
-55 0 -107 -19 -135 -50 l-22 -25 4 -415 c4 -454 12 -546 60 -640 9 -18 16
-41 16 -51 0 -18 39 -100 52 -110 4 -3 16 -21 25 -40 17 -34 70 -104 104 -138
52 -52 171 -141 188 -141 4 0 32 -13 62 -30 30 -16 66 -30 82 -30 15 0 27 -4
27 -9 0 -30 407 -30 426 0 3 5 16 9 30 9 13 0 24 5 24 10 0 6 6 10 13 10 15 0
144 66 162 83 7 6 23 19 35 27 40 26 170 163 170 178 0 5 8 17 18 28 25 27 62
103 62 125 0 10 3 19 8 19 9 0 28 58 58 180 23 92 24 107 24 521 0 494 7 460
-100 478 -86 15 -150 33 -150 43 0 4 -6 8 -13 8 -26 0 -97 93 -97 127 0 10 -9
29 -20 43 l-19 25 -408 2 c-224 1 -417 -2 -428 -6z m729 -202 c14 -17 26 -35
26 -40 0 -18 113 -118 146 -129 19 -6 34 -16 34 -21 0 -5 7 -9 15 -9 8 0 33
-6 55 -12 36 -12 40 -16 46 -55 11 -73 0 -698 -12 -714 -6 -8 -14 -33 -18 -57
-3 -24 -10 -51 -15 -60 -5 -9 -14 -30 -21 -47 -12 -28 -41 -87 -64 -130 -20
-36 -152 -160 -192 -180 -21 -11 -40 -23 -42 -27 -2 -5 -12 -8 -22 -8 -10 0
-20 -3 -22 -8 -1 -4 -33 -17 -69 -30 -71 -23 -224 -31 -271 -13 -13 5 -41 14
-63 21 -52 15 -142 58 -179 84 -42 30 -102 93 -139 146 -17 25 -33 47 -36 50
-6 5 -18 29 -41 85 -7 17 -16 38 -21 47 -5 10 -9 27 -9 37 0 11 -4 22 -9 25
-5 3 -11 29 -14 58 -4 29 -11 79 -16 110 -11 66 -15 513 -5 597 l6 57 45 14
c111 32 192 91 277 203 l28 37 288 0 288 0 26 -31z"/>
<path d="M3701 3120 c-137 -137 -207 -200 -222 -200 -12 0 -30 10 -41 23 -53
62 -134 137 -149 137 -22 0 -119 -95 -119 -116 0 -20 295 -314 315 -314 17 0
555 532 555 549 0 5 -7 16 -15 25 -8 8 -15 17 -15 20 0 13 -75 76 -91 76 -9 0
-107 -90 -218 -200z"/>
<path d="M1144 2611 c-22 -16 -56 -44 -76 -64 l-38 -35 -2 -618 -3 -619 -108
-1 c-129 -2 -136 -7 -137 -100 0 -56 2 -62 25 -72 38 -18 2913 -16 2936 1 11
9 15 27 14 72 -3 74 -2 71 -19 88 -10 10 -35 13 -97 10 -46 -2 -94 -1 -106 2
l-23 5 0 284 0 284 -25 16 c-13 9 -35 16 -49 16 -14 0 -28 5 -31 10 -9 14 -47
12 -67 -4 -16 -12 -18 -39 -18 -309 0 -260 -2 -296 -16 -301 -20 -8 -528 -8
-548 0 -14 5 -16 59 -16 496 l0 491 -30 28 -30 29 -403 0 c-363 0 -405 -2
-427 -17 -51 -35 -49 -18 -50 -535 l0 -488 -23 -5 c-12 -4 -142 -5 -287 -3
l-265 3 -3 672 c-2 646 -3 673 -21 682 -15 8 -27 4 -57 -18z m1406 -905 c0
-377 -2 -425 -16 -430 -28 -11 -504 -7 -525 4 -18 10 -19 26 -19 430 l0 420
280 0 280 0 0 -424z"/>
</g>
</svg>
