<?xml version="1.0" standalone="no"?>
<!DOCTYPE svg PUBLIC "-//W3C//DTD SVG 20010904//EN"
 "http://www.w3.org/TR/2001/REC-SVG-20010904/DTD/svg10.dtd">
<svg version="1.0" xmlns="http://www.w3.org/2000/svg"
 width="200.000000pt" height="200.000000pt" viewBox="0 0 200.000000 200.000000"
 preserveAspectRatio="xMidYMid meet">
<metadata>
Created by potrace 1.15, written by Peter Selinger 2001-2017
</metadata>
<g transform="translate(0.000000,200.000000) scale(0.100000,-0.100000)"
fill="#000000" stroke="none">
<path d="M703 1908 c-17 -18 -57 -69 -89 -113 -41 -56 -60 -75 -62 -62 -3 16
13 50 62 132 33 54 -94 -87 -138 -155 -94 -143 -183 -348 -211 -489 -18 -86
-15 -175 5 -195 16 -16 12 -39 -5 -32 -35 13 -1 -39 122 -187 40 -49 73 -95
73 -103 0 -19 -6 -18 -30 8 -20 21 -20 21 -20 1 0 -11 -11 -36 -24 -55 l-24
-36 22 -38 c24 -43 36 -45 101 -20 43 16 165 22 165 7 0 -4 -26 -11 -57 -15
-78 -9 -143 -41 -143 -69 1 -32 26 -61 47 -54 10 3 45 17 78 31 82 35 101 33
146 -13 29 -32 40 -55 53 -110 17 -76 21 -131 8 -131 -5 0 -16 33 -25 72 -18
73 -59 158 -77 158 -17 0 -23 -49 -11 -96 23 -92 136 -279 152 -253 5 8 9 85
9 172 l0 157 -62 77 c-93 115 -288 321 -357 378 -33 28 -60 54 -60 58 -2 19
142 -95 249 -196 141 -135 134 -129 164 -116 l27 13 -65 65 c-126 129 -239
314 -251 412 -3 32 -3 37 4 19 45 -135 171 -299 340 -445 55 -47 108 -99 118
-115 15 -27 23 -30 65 -30 42 0 49 3 62 29 9 16 59 65 113 108 126 103 253
252 302 358 21 44 43 91 50 105 10 23 11 21 6 -15 -8 -58 -94 -231 -150 -300
-26 -33 -75 -88 -108 -122 -59 -60 -60 -63 -42 -78 11 -8 22 -15 25 -15 3 0
53 43 110 96 111 103 259 224 273 224 4 0 -57 -64 -136 -142 -79 -79 -187
-194 -240 -257 l-97 -114 0 -178 c0 -100 4 -179 9 -179 16 0 130 196 140 241
6 24 10 67 10 94 l0 50 -24 -28 c-22 -24 -51 -105 -69 -189 -4 -16 -11 -28
-16 -28 -14 0 -12 41 6 123 41 180 100 200 285 100 4 -2 17 12 29 33 26 41 27
40 -55 80 -27 13 -68 24 -90 24 -30 0 -36 3 -25 10 25 16 96 11 150 -10 28
-11 55 -20 60 -20 16 0 63 78 56 92 -4 7 -17 30 -30 51 -20 33 -25 36 -36 22
-15 -18 -30 -20 -30 -3 0 6 44 66 99 133 54 66 104 131 110 144 12 21 11 22
-8 16 -25 -8 -26 -3 -5 37 34 66 3 252 -76 444 -55 135 -131 253 -222 347 -44
45 -69 66 -55 47 36 -52 64 -102 72 -127 12 -43 -13 -23 -59 45 -24 37 -65 86
-89 110 l-44 43 -12 -45 c-19 -77 -15 -96 29 -133 61 -53 49 -76 -14 -28 -18
14 -36 25 -39 25 -19 0 -2 -29 37 -67 139 -134 157 -418 35 -557 -61 -69 -66
-70 -153 -41 -99 33 -183 33 -282 0 -41 -14 -77 -25 -80 -25 -14 0 -108 99
-125 132 -26 50 -41 168 -33 253 9 91 39 157 103 227 57 62 66 98 14 54 -30
-25 -63 -35 -63 -18 0 4 20 25 45 45 39 33 45 43 45 75 -1 20 -9 52 -18 70
l-18 32 -31 -32z m6 -960 l77 -82 0 79 c-1 54 3 79 12 82 8 3 12 -8 12 -38 0
-23 7 -69 17 -102 18 -67 53 -106 131 -149 l48 -27 68 45 c78 52 102 94 120
207 6 37 15 66 21 64 11 -4 13 -60 3 -126 l-6 -44 42 42 c24 24 56 60 72 82
16 21 32 39 37 39 17 0 3 -29 -43 -91 -62 -83 -162 -177 -251 -236 l-69 -46
-68 46 c-82 56 -208 180 -268 263 -24 34 -44 64 -44 68 0 16 18 0 89 -76z"/>
</g>
</svg>
