<svg xmlns="http://www.w3.org/2000/svg" viewBox="0 0 32.95 29.36"><defs><style>.cls-1{fill:#ff493e;}.cls-2{fill:#fff;}</style></defs><title>Validator_34x30</title><g id="Layer_2" data-name="Layer 2"><g id="Notations"><path class="cls-1" d="M.42,24.73,13.81,1.54a3.08,3.08,0,0,1,5.34,0L32.53,24.73a3.08,3.08,0,0,1-2.67,4.63H3.09A3.08,3.08,0,0,1,.42,24.73Z"/><path class="cls-2" d="M16.38,24.33a1.84,1.84,0,0,1,0-3.69,1.84,1.84,0,1,1,0,3.69ZM17.71,18a1.33,1.33,0,0,1-2.66,0c-.11-2.54-.37-7.19-.37-7.65a1.66,1.66,0,0,1,1.72-1.67,1.63,1.63,0,0,1,1.65,1.67C18.05,10.82,17.83,15.47,17.71,18Z"/></g></g></svg>