<?xml version="1.0" standalone="no"?>
<!DOCTYPE svg PUBLIC "-//W3C//DTD SVG 20010904//EN"
 "http://www.w3.org/TR/2001/REC-SVG-20010904/DTD/svg10.dtd">
<svg version="1.0" xmlns="http://www.w3.org/2000/svg"
 width="1048.000000pt" height="746.000000pt" viewBox="0 0 1048.000000 746.000000"
 preserveAspectRatio="xMidYMid meet">
<metadata>
Created by potrace 1.16, written by Peter Selinger 2001-2019
</metadata>
<g transform="translate(0.000000,746.000000) scale(0.100000,-0.100000)"
fill="#000000" stroke="none">
<path d="M1930 7139 c-467 -49 -939 -295 -1250 -652 -245 -279 -397 -602 -467
-987 -21 -119 -24 -456 -5 -575 56 -345 187 -654 391 -920 130 -171 360 -375
548 -486 48 -28 91 -56 95 -63 4 -6 8 -607 8 -1336 l1 -1325 22 -66 c58 -170
167 -280 344 -350 48 -19 77 -23 168 -22 100 0 120 3 218 36 542 182 1264 246
1937 172 441 -49 976 -175 1386 -326 193 -71 259 -82 347 -54 50 16 57 16 112
0 87 -26 155 -16 320 46 478 177 1074 310 1575 348 636 49 1243 -14 1775 -186
247 -79 425 -43 591 122 78 77 133 175 153 273 8 38 11 731 11 2385 0 2555 4
2391 -59 2515 -69 137 -155 208 -411 339 -206 106 -401 182 -630 248 -253 72
-408 102 -680 131 -205 22 -599 22 -815 0 -568 -57 -1181 -235 -1733 -501
l-153 -74 -167 79 c-547 258 -1111 424 -1642 485 -74 8 -159 15 -188 15 -53 0
-54 0 -115 68 -193 212 -373 350 -612 468 -334 164 -710 232 -1075 193z m514
-349 c153 -30 252 -63 393 -130 403 -192 704 -531 843 -949 115 -346 115 -686
0 -1031 -80 -239 -204 -435 -394 -625 -262 -261 -541 -403 -916 -466 -110 -19
-364 -16 -485 6 -378 66 -711 249 -953 525 -386 439 -509 1038 -326 1589 141
424 464 782 870 965 161 73 289 109 484 136 108 15 361 5 484 -20z m5826 -700
c521 -37 1050 -193 1444 -424 105 -62 139 -98 156 -166 8 -32 10 -692 8 -2355
l-3 -2310 -28 -47 c-17 -29 -44 -57 -70 -72 -76 -45 -96 -43 -309 18 -396 114
-707 164 -1150 187 -432 21 -1013 -31 -1468 -132 -299 -66 -637 -163 -853
-246 -49 -18 -93 -31 -98 -27 -5 3 -9 1021 -9 2513 0 1995 3 2511 13 2519 6 5
91 46 187 89 605 276 1137 414 1750 456 107 8 296 6 430 -3z m-3979 -90 c337
-69 730 -203 1102 -375 l167 -78 0 -2519 c0 -2396 -1 -2520 -17 -2514 -729
250 -1137 342 -1768 397 -205 18 -674 15 -875 -5 -397 -40 -583 -77 -1055
-213 -96 -27 -200 18 -245 108 -20 37 -20 64 -20 1279 0 682 3 1240 8 1240 4
0 57 -11 117 -24 176 -39 286 -49 497 -43 277 7 426 37 678 138 244 97 449
236 650 438 312 314 492 685 551 1136 19 149 6 473 -25 622 -31 148 -65 258
-117 377 -21 49 -39 93 -39 96 0 9 209 -23 391 -60z"/>
<path d="M2095 6301 c-78 -47 -117 -132 -97 -207 17 -62 38 -91 89 -121 126
-74 283 12 283 155 0 28 -5 63 -11 79 -13 34 -55 80 -91 99 -39 21 -136 18
-173 -5z"/>
<path d="M1700 5758 c-54 -28 -80 -74 -80 -143 0 -62 26 -113 71 -140 28 -17
58 -21 179 -25 l145 -5 3 -532 2 -531 -149 -4 c-165 -3 -182 -9 -228 -78 -46
-67 -23 -181 46 -227 l34 -23 461 0 c522 0 504 -3 547 81 26 53 23 136 -8 177
-42 57 -75 67 -230 70 l-143 4 0 534 0 534 137 0 c167 0 209 15 242 84 42 87
14 188 -63 225 -41 20 -58 21 -482 21 -436 0 -440 0 -484 -22z"/>
<path d="M7590 5264 c-19 -2 -84 -9 -145 -15 -373 -37 -751 -149 -1089 -322
-113 -57 -136 -85 -136 -160 0 -55 16 -90 57 -129 67 -63 110 -62 248 7 292
145 620 241 954 280 164 19 518 20 681 0 347 -40 681 -137 979 -284 57 -28
117 -51 133 -51 96 0 193 118 172 207 -17 69 -77 109 -316 212 -273 117 -560
193 -893 237 -104 14 -568 27 -645 18z"/>
<path d="M7595 4293 c-382 -33 -830 -156 -1150 -315 -144 -72 -181 -114 -172
-195 7 -60 46 -116 102 -143 60 -29 82 -24 248 55 430 207 909 300 1410 274
396 -21 781 -115 1111 -273 157 -75 175 -80 226 -66 109 29 164 164 104 254
-34 53 -361 197 -636 280 -159 48 -433 102 -610 121 -133 14 -513 19 -633 8z"/>
<path d="M7615 3320 c-350 -35 -693 -124 -997 -259 -240 -106 -288 -144 -288
-230 0 -77 51 -147 126 -171 46 -16 67 -10 209 60 434 212 969 315 1459 281
394 -28 777 -128 1106 -288 167 -81 214 -78 293 20 39 48 47 118 18 164 -27
43 -76 74 -218 137 -315 141 -617 227 -955 272 -144 19 -614 27 -753 14z"/>
<path d="M7805 2359 c-434 -23 -840 -126 -1220 -308 -150 -72 -189 -104 -201
-166 -11 -63 34 -148 97 -180 57 -30 106 -20 260 54 517 249 1100 331 1722
240 254 -36 535 -121 777 -234 205 -96 269 -98 336 -9 21 27 29 50 32 92 6 87
-17 113 -158 184 -481 238 -1082 358 -1645 327z"/>
<path d="M4385 5089 c-70 -20 -114 -106 -94 -181 16 -63 45 -84 194 -143 77
-30 187 -79 244 -107 113 -57 153 -63 208 -34 47 24 76 71 80 130 7 94 -26
122 -271 230 -130 58 -293 117 -317 115 -8 0 -28 -5 -44 -10z"/>
<path d="M4095 4189 c-40 -12 -58 -27 -84 -69 -37 -61 -24 -136 31 -187 12
-11 59 -31 102 -43 161 -45 345 -113 485 -181 106 -51 154 -69 185 -69 129 0
200 165 109 252 -65 62 -456 225 -680 283 -104 27 -105 27 -148 14z"/>
<path d="M3095 3314 c-294 -29 -406 -46 -600 -95 -174 -44 -321 -93 -480 -161
-170 -72 -257 -120 -284 -154 -44 -56 -17 -164 53 -212 51 -35 101 -29 204 22
267 134 607 236 943 283 175 24 595 24 769 0 339 -48 670 -149 941 -288 100
-51 152 -53 205 -7 66 58 82 138 41 199 -42 63 -366 208 -643 288 -303 88
-526 120 -869 125 -132 2 -258 2 -280 0z"/>
<path d="M2950 2339 c-258 -24 -569 -93 -810 -179 -145 -52 -351 -144 -423
-188 -66 -40 -84 -116 -44 -186 29 -51 64 -76 115 -83 37 -5 61 3 199 67 428
198 892 292 1363 277 447 -15 828 -108 1200 -292 101 -49 121 -56 161 -52 85
7 139 70 139 160 0 64 -32 98 -151 157 -342 172 -739 282 -1149 320 -134 12
-463 11 -600 -1z"/>
</g>
</svg>
