<?xml version="1.0" standalone="no"?>
<!DOCTYPE svg PUBLIC "-//W3C//DTD SVG 20010904//EN"
 "http://www.w3.org/TR/2001/REC-SVG-20010904/DTD/svg10.dtd">
<svg version="1.0" xmlns="http://www.w3.org/2000/svg"
 width="200.000000pt" height="200.000000pt" viewBox="0 0 200.000000 200.000000"
 preserveAspectRatio="xMidYMid meet">
<metadata>
Created by potrace 1.15, written by Peter Selinger 2001-2017
</metadata>
<g transform="translate(0.000000,200.000000) scale(0.100000,-0.100000)"
fill="#000000" stroke="none">
<path d="M730 1685 c-23 -69 -41 -128 -38 -130 2 -3 15 -6 28 -7 22 -3 27 6
67 120 l43 123 -26 9 c-14 6 -27 10 -28 10 -2 0 -22 -56 -46 -125z"/>
<path d="M967 1627 c-64 -62 -117 -117 -117 -123 0 -6 7 -17 15 -24 18 -15 24
-11 160 117 107 101 108 103 90 123 -10 11 -21 20 -24 20 -3 -1 -59 -51 -124
-113z"/>
<path d="M390 1521 l-95 -86 -3 38 -3 37 -60 0 -59 0 0 -94 0 -94 -38 -32
c-20 -18 -57 -51 -80 -73 l-44 -39 38 -39 c21 -21 43 -39 48 -39 6 0 25 14 43
32 l33 32 0 -272 0 -272 70 0 70 0 0 145 0 145 60 0 60 0 0 -145 0 -145 190 0
190 0 0 267 0 267 35 -34 35 -34 31 30 c61 58 70 44 -177 271 -125 114 -232
211 -238 214 -6 4 -54 -32 -106 -80z"/>
<path d="M1065 1451 c-107 -48 -129 -61 -127 -77 2 -10 7 -23 11 -27 6 -6 251
93 269 108 2 2 -2 15 -10 29 l-13 25 -130 -58z"/>
<path d="M1825 1348 c-38 -20 -55 -51 -55 -101 0 -40 5 -53 29 -77 51 -52 111
-52 162 0 24 23 29 37 29 75 0 40 -5 52 -34 81 -27 27 -42 34 -72 34 -22 0
-48 -6 -59 -12z"/>
<path d="M1324 1250 c-50 -7 -142 -45 -175 -72 -67 -55 -88 -147 -46 -209 35
-54 79 -71 162 -66 119 8 239 70 348 178 84 84 89 111 25 139 -44 19 -175 41
-231 39 -18 -1 -55 -5 -83 -9z"/>
<path d="M1577 1003 c-82 -82 -159 -166 -172 -188 -14 -24 -30 -77 -40 -135
-8 -52 -18 -106 -21 -120 l-5 -26 -119 15 c-113 14 -120 14 -140 -4 -29 -26
-26 -70 5 -91 27 -17 236 -53 316 -54 64 0 82 23 109 143 26 110 20 109 100
17 50 -58 50 -59 75 -191 14 -74 25 -137 25 -141 0 -5 -119 -8 -265 -8 l-265
0 0 -25 0 -25 313 0 c291 0 315 1 330 18 22 24 21 60 -3 223 -27 180 -22 166
-90 252 -33 42 -60 80 -60 85 0 4 22 30 49 56 l50 49 7 -39 c9 -52 20 -71 44
-79 40 -13 58 5 114 110 74 138 74 185 -1 185 -24 0 -37 -7 -50 -26 l-17 -27
-13 69 c-14 79 -36 104 -91 104 -32 0 -49 -13 -185 -147z"/>
</g>
</svg>
