<?xml version="1.0" standalone="no"?>
<!DOCTYPE svg PUBLIC "-//W3C//DTD SVG 20010904//EN"
 "http://www.w3.org/TR/2001/REC-SVG-20010904/DTD/svg10.dtd">
<svg version="1.0" xmlns="http://www.w3.org/2000/svg"
 width="500.000000pt" height="500.000000pt" viewBox="0 0 500.000000 500.000000"
 preserveAspectRatio="xMidYMid meet">
<metadata>
Created by potrace 1.15, written by Peter Selinger 2001-2017
</metadata>
<g transform="translate(0.000000,500.000000) scale(0.100000,-0.100000)"
fill="#000000" stroke="none">
<path d="M2590 4240 c-8 -5 -35 -10 -60 -10 -25 0 -58 -7 -74 -15 -15 -8 -42
-15 -59 -15 -33 0 -169 -49 -175 -62 -2 -5 -14 -8 -27 -8 -12 0 -28 -7 -35
-15 -7 -8 -23 -15 -36 -15 -13 0 -24 -4 -24 -8 0 -4 -27 -24 -60 -43 -33 -18
-60 -37 -60 -41 0 -5 -7 -8 -15 -8 -8 0 -15 -4 -15 -10 0 -5 -6 -10 -13 -10
-16 0 -191 -169 -237 -230 -19 -25 -38 -46 -42 -48 -5 -2 -8 -9 -8 -15 0 -7
-11 -24 -25 -39 -14 -15 -25 -34 -25 -42 0 -8 -5 -18 -11 -22 -10 -6 -24 -34
-76 -154 -8 -19 -19 -44 -24 -55 -17 -38 -39 -120 -39 -147 0 -14 -6 -28 -12
-30 -18 -6 -18 -475 -1 -533 6 -22 18 -65 27 -95 20 -74 35 -116 63 -173 12
-27 23 -53 23 -59 0 -5 11 -24 25 -42 14 -18 25 -36 25 -39 0 -14 63 -103 112
-159 98 -110 164 -178 175 -178 6 0 13 -7 17 -15 3 -8 16 -20 28 -25 29 -13
55 -30 84 -56 22 -20 122 -74 137 -74 4 0 24 -10 45 -23 20 -13 66 -31 102
-42 36 -10 69 -22 75 -27 5 -4 35 -8 66 -8 36 0 59 -4 61 -12 9 -27 424 -26
451 1 6 6 34 11 61 11 57 0 116 18 241 74 102 46 166 80 188 101 12 11 32 26
45 32 55 29 247 210 278 262 10 17 22 31 26 31 4 0 8 5 8 11 0 6 11 25 25 43
14 18 25 36 25 40 0 4 11 22 25 40 14 18 25 40 25 49 0 10 4 17 9 17 4 0 16
21 26 48 9 26 23 61 31 79 8 17 14 45 14 62 0 17 4 31 9 31 5 0 11 17 14 38 2
20 14 73 25 117 30 110 30 276 1 406 -12 52 -23 105 -26 119 -2 14 -8 34 -12
45 -18 47 -41 124 -41 138 0 8 -3 17 -7 19 -11 4 -43 67 -43 84 0 8 -4 14 -9
14 -5 0 -12 8 -15 18 -13 35 -47 87 -89 135 -10 12 -28 38 -39 59 -12 21 -28
38 -35 38 -7 0 -13 5 -13 11 0 14 -25 39 -39 39 -6 0 -11 6 -11 13 0 6 -13 22
-28 34 -15 12 -40 33 -57 47 -16 15 -52 41 -80 59 -27 17 -51 35 -53 39 -2 5
-10 8 -18 8 -8 0 -14 3 -14 8 0 11 -59 42 -81 42 -10 0 -19 4 -19 10 0 5 -11
12 -25 16 -14 3 -25 10 -25 15 0 5 -9 9 -21 9 -11 0 -44 11 -72 24 -29 13 -70
26 -92 29 -22 3 -58 9 -80 15 -119 30 -362 44 -395 22z m330 -239 c25 -5 67
-15 95 -21 27 -5 54 -15 59 -20 6 -6 25 -10 43 -10 18 0 33 -4 33 -10 0 -5 11
-12 25 -16 14 -3 25 -9 25 -13 0 -4 23 -15 50 -26 28 -11 50 -23 50 -27 0 -4
6 -8 13 -8 7 0 24 -11 39 -25 15 -14 30 -25 33 -25 3 0 20 -15 38 -33 18 -19
42 -39 55 -46 12 -6 22 -16 22 -21 0 -5 22 -31 49 -57 26 -26 68 -79 92 -118
24 -38 47 -71 51 -73 4 -2 8 -15 8 -28 0 -13 5 -24 10 -24 6 0 10 -6 10 -12 0
-7 6 -24 13 -38 8 -14 17 -41 21 -60 3 -19 15 -53 25 -75 26 -54 33 -114 33
-280 1 -143 -12 -265 -29 -287 -5 -7 -15 -33 -22 -58 -7 -25 -19 -57 -27 -72
-8 -14 -14 -36 -14 -47 0 -12 -4 -21 -10 -21 -5 0 -10 -9 -10 -20 0 -11 -7
-23 -15 -26 -8 -4 -15 -12 -15 -20 0 -8 -4 -14 -10 -14 -5 0 -10 -9 -10 -20 0
-11 -4 -20 -8 -20 -5 0 -24 -22 -43 -50 -19 -27 -37 -50 -41 -50 -5 0 -8 -7
-8 -15 0 -8 -6 -15 -13 -15 -8 0 -19 -11 -26 -24 -7 -13 -24 -30 -37 -37 -13
-7 -24 -18 -24 -26 0 -7 -5 -13 -10 -13 -6 0 -22 -11 -36 -25 -14 -14 -30 -25
-36 -25 -6 0 -21 -11 -34 -25 -13 -14 -28 -25 -34 -25 -6 0 -27 -11 -48 -24
-52 -33 -146 -76 -165 -76 -9 0 -51 -12 -94 -26 -73 -24 -91 -26 -258 -26
-158 0 -189 2 -255 22 -41 12 -91 25 -110 28 -19 2 -52 15 -72 28 -21 13 -42
24 -47 24 -14 0 -71 34 -71 43 0 4 -8 7 -18 7 -9 0 -29 11 -44 25 -15 14 -30
25 -33 25 -3 0 -19 12 -35 27 -60 57 -80 73 -90 73 -5 0 -10 5 -10 11 0 14
-25 39 -39 39 -6 0 -11 5 -11 10 0 6 -11 23 -25 38 -14 15 -25 30 -25 35 0 4
-9 18 -21 30 -11 12 -30 42 -42 67 -12 25 -25 47 -29 48 -5 2 -8 10 -8 18 0 8
-11 32 -25 54 -14 22 -25 49 -25 60 0 11 -4 20 -10 20 -5 0 -10 19 -10 43 0
23 -7 56 -16 72 -23 44 -23 423 0 477 9 21 16 49 16 63 0 14 4 33 9 43 5 9 31
61 56 114 26 54 53 103 61 109 8 6 21 26 29 43 8 17 26 43 40 58 14 15 25 29
25 32 0 6 109 114 171 168 30 26 64 47 77 48 12 0 22 3 22 8 0 7 30 25 63 38
9 3 17 10 17 15 0 5 11 9 24 9 13 0 26 7 30 15 3 9 18 15 39 15 18 0 37 4 42
9 16 14 120 41 162 41 21 0 45 5 53 11 18 12 255 5 320 -10z"/>
<path d="M2420 3841 c-8 -5 -34 -17 -57 -27 -24 -11 -43 -22 -43 -26 0 -5 -6
-8 -13 -8 -8 0 -27 -11 -43 -25 -16 -14 -37 -28 -46 -31 -10 -3 -18 -10 -18
-15 0 -5 -6 -9 -13 -9 -8 0 -37 -22 -66 -50 -29 -27 -55 -50 -59 -50 -4 0 -16
-15 -27 -32 -10 -18 -31 -46 -46 -61 -16 -15 -38 -45 -50 -67 -13 -22 -26 -40
-31 -40 -4 0 -8 -11 -8 -25 0 -14 -4 -25 -10 -25 -5 0 -12 -11 -16 -25 -3 -14
-10 -25 -15 -25 -5 0 -9 -9 -9 -20 0 -10 -5 -30 -11 -44 -13 -29 0 -49 41 -60
26 -8 63 -22 92 -37 27 -13 78 11 78 38 0 13 4 23 9 23 5 0 12 11 15 25 4 14
11 25 16 25 6 0 10 7 10 17 0 37 184 244 232 259 10 3 18 10 18 15 0 5 6 9 14
9 8 0 16 3 18 8 6 13 83 59 112 66 35 9 56 29 56 53 0 26 -52 146 -70 160 -17
14 -39 15 -60 4z"/>
<path d="M2570 3380 c-19 -11 -43 -22 -52 -26 -10 -3 -18 -10 -18 -14 0 -4
-11 -11 -25 -14 -14 -4 -25 -11 -25 -16 0 -6 -6 -10 -13 -10 -14 0 -87 -75
-87 -90 0 -6 -4 -10 -10 -10 -5 0 -12 -11 -16 -25 -3 -14 -10 -25 -15 -25 -5
0 -9 -11 -9 -24 0 -13 -5 -26 -11 -28 -15 -5 -39 -103 -39 -160 0 -105 52
-245 118 -315 17 -19 32 -37 32 -39 0 -10 29 -34 40 -34 6 0 26 -11 44 -25 18
-14 40 -25 49 -25 8 0 17 -4 19 -10 2 -5 40 -17 85 -27 72 -15 92 -15 160 -4
43 7 88 19 100 27 12 8 29 14 38 14 8 0 15 5 15 10 0 6 6 10 14 10 8 0 16 7
20 15 3 8 12 15 21 15 14 0 95 73 95 85 0 3 8 15 18 25 29 32 62 104 62 138 0
17 5 34 10 37 6 3 10 46 10 95 0 49 -4 92 -10 95 -5 3 -10 21 -10 39 0 18 -7
41 -15 52 -8 10 -15 26 -15 34 0 9 -12 30 -27 47 -16 17 -41 48 -57 67 -15 20
-37 36 -47 36 -10 0 -19 6 -19 13 0 6 -36 29 -79 50 -78 36 -81 37 -198 37
-97 -1 -124 -4 -153 -20z m247 -221 c25 -11 55 -29 66 -40 12 -10 24 -19 28
-19 4 0 19 -24 33 -54 20 -43 26 -70 26 -125 0 -38 -4 -73 -10 -76 -5 -3 -10
-14 -10 -24 0 -15 -51 -75 -93 -108 -9 -7 -30 -13 -46 -13 -16 0 -33 -4 -36
-10 -9 -14 -73 -12 -115 3 -75 26 -160 100 -160 140 0 14 -4 29 -10 32 -5 3
-10 35 -10 71 0 36 4 64 10 64 6 0 10 11 10 24 0 29 82 111 138 138 50 24 123
23 179 -3z"/>
<path d="M953 3244 c-29 -13 -53 -29 -53 -34 0 -6 -5 -10 -11 -10 -24 0 -84
-85 -94 -135 -14 -69 -4 -235 15 -235 4 0 15 -16 26 -35 10 -19 27 -38 38 -41
10 -4 29 -16 40 -28 12 -12 35 -26 51 -31 23 -8 31 -17 33 -40 1 -17 9 -52 16
-80 8 -27 20 -70 26 -95 7 -25 23 -66 36 -92 13 -27 24 -57 24 -68 0 -11 5
-20 10 -20 6 0 10 -7 10 -17 0 -22 51 -126 67 -136 7 -4 13 -17 13 -27 0 -11
4 -20 9 -20 5 0 12 -11 15 -25 4 -14 11 -25 16 -25 6 0 10 -6 10 -13 0 -7 11
-24 25 -39 14 -15 25 -32 25 -38 0 -5 5 -10 10 -10 6 0 10 -6 10 -13 0 -7 18
-32 40 -56 22 -23 40 -44 40 -46 0 -10 78 -85 88 -85 7 0 12 -5 12 -12 0 -10
75 -88 85 -88 2 0 23 -18 45 -40 22 -22 45 -40 50 -40 11 0 45 -26 69 -52 8
-10 21 -18 28 -18 7 0 20 -14 28 -30 13 -26 16 -69 14 -264 l-1 -233 28 -61
c16 -34 35 -62 42 -62 6 0 12 -5 12 -11 0 -13 25 -39 38 -39 6 0 12 -3 14 -7
2 -5 20 -16 41 -26 35 -16 92 -17 736 -17 l699 0 51 26 c69 36 113 87 144 169
l27 70 0 325 c-1 344 -3 360 -48 360 -11 0 -43 -16 -72 -35 -29 -19 -58 -35
-64 -35 -7 0 -20 -8 -29 -18 -15 -16 -17 -52 -17 -300 0 -181 -4 -282 -10
-282 -5 0 -10 -6 -10 -14 0 -8 -10 -22 -22 -30 -20 -14 -98 -16 -646 -16 -571
0 -626 1 -653 17 l-29 17 0 173 c0 168 1 173 21 173 11 0 27 -7 35 -15 9 -8
24 -15 34 -15 10 0 22 -5 25 -10 3 -5 17 -10 30 -10 13 0 26 -4 29 -9 3 -5 23
-12 43 -16 21 -4 43 -10 48 -15 6 -4 35 -10 65 -13 30 -2 73 -9 95 -16 22 -6
72 -11 112 -11 39 0 83 -4 96 -9 16 -6 38 -6 61 1 l37 12 -3 100 -3 101 -80 7
c-186 17 -345 44 -345 60 0 4 -10 8 -22 8 -27 0 -122 32 -126 43 -2 4 -11 7
-20 7 -19 0 -220 98 -240 118 -7 6 -20 12 -28 12 -8 0 -14 5 -14 10 0 6 -5 10
-11 10 -6 0 -16 6 -23 13 -7 6 -32 28 -56 47 -23 19 -51 43 -63 53 -11 9 -23
17 -27 17 -9 0 -140 130 -140 140 0 4 -11 20 -25 36 -14 16 -25 32 -25 37 0 4
-7 7 -15 7 -8 0 -15 6 -15 14 0 7 -6 19 -13 25 -8 6 -24 32 -38 57 -13 25 -29
49 -36 51 -7 3 -13 12 -13 20 0 8 -11 31 -25 51 -14 20 -25 42 -25 48 0 15
-29 72 -41 79 -5 4 -9 17 -9 31 0 13 -4 24 -10 24 -5 0 -10 9 -10 21 0 11 -6
33 -14 47 -8 15 -19 55 -25 90 -7 35 -14 69 -17 77 -3 7 18 37 49 68 32 32 60
70 67 93 7 22 16 49 21 62 12 32 11 99 -2 141 -20 62 -38 101 -49 101 -5 0
-10 5 -10 11 0 14 -25 39 -39 39 -6 0 -11 3 -11 8 0 9 -52 36 -99 51 -58 19
-140 12 -198 -15z m163 -220 c29 -31 30 -63 3 -98 -26 -33 -56 -33 -91 1 -35
33 -35 55 -1 93 32 37 58 38 89 4z"/>
</g>
</svg>
